<?xml version="1.0" standalone="no"?><!DOCTYPE svg PUBLIC "-//W3C//DTD SVG 1.1//EN" "http://www.w3.org/Graphics/SVG/1.1/DTD/svg11.dtd"><svg t="1678607681161" class="icon" viewBox="0 0 1024 1024" version="1.1" xmlns="http://www.w3.org/2000/svg" p-id="977" xmlns:xlink="http://www.w3.org/1999/xlink" width="200" height="200"><path d="M972.086681 439.478561l-401.008894-353.431568c-33.983805-27.187044-88.357892-27.187044-122.341696 0l-401.008894 353.431568c-13.593522 13.593522-20.390283 33.983805-6.796761 54.374087s27.187044 20.390283 40.780565 6.796761l13.593522-13.593522v428.195938c0 61.170848 54.374087 108.748175 108.748175 108.748175h632.098765c47.577326 0 81.561131-40.780566 81.561131-108.748175v-428.195938l13.593522 6.796761c6.796761 6.796761 13.593522 6.796761 20.390283 6.796761 6.796761 0 20.390283-6.796761 27.187043-13.593522 13.593522-13.593522 6.796761-33.983805-6.796761-47.577326z m-496.163547 509.757069v-197.106067c0-6.796761 13.593522-13.593522 33.983805-13.593522s33.983805 6.796761 33.983805 13.593522v197.106067h-67.96761z m380.618612-40.780566c0 20.390283-6.796761 33.983805-20.390283 33.983805H605.061592v-197.106067c0-33.983805-27.187044-81.561131-95.154653-81.561131s-95.154653 40.780566-95.154653 88.357892v197.106067H204.052698c-20.390283 0-47.577326-20.390283-47.577327-33.983805v-482.570025l326.244524-285.463959c13.593522-13.593522 33.983805-13.593522 47.577327-6.79676l326.244524 285.463958v482.570025z" fill="#333333" p-id="978"></path></svg>