<?xml version="1.0" standalone="no"?><!DOCTYPE svg PUBLIC "-//W3C//DTD SVG 1.1//EN" "http://www.w3.org/Graphics/SVG/1.1/DTD/svg11.dtd"><svg t="1678607760717" class="icon" viewBox="0 0 1024 1024" version="1.1" xmlns="http://www.w3.org/2000/svg" p-id="1461" xmlns:xlink="http://www.w3.org/1999/xlink" width="200" height="200"><path d="M546.133333 609.962667c-150.186667 0-273.066667-122.88-273.066666-273.066667s122.88-273.066667 273.066666-273.066667 273.066667 122.88 273.066667 273.066667-122.88 273.066667-273.066667 273.066667z m0-471.04c-109.226667 0-197.973333 81.92-197.973333 191.146666s88.746667 197.973333 197.973333 197.973334c109.226667 0 197.973333-88.746667 197.973334-197.973334s-88.746667-191.146667-197.973334-191.146666z m266.24 873.813333H279.893333c-95.573333 0-177.493333-81.92-177.493333-177.493333s81.92-177.493333 177.493333-177.493334h532.48c95.573333 0 177.493333 81.92 177.493334 177.493334s-81.92 177.493333-177.493334 177.493333z m-532.48-279.893333c-54.613333 0-102.4 47.786667-102.4 102.4s47.786667 102.4 102.4 102.4h532.48c54.613333 0 102.4-47.786667 102.4-102.4s-47.786667-102.4-102.4-102.4H279.893333z" fill="#333333" p-id="1462"></path><path d="M805.546667 835.242667H716.8c-20.48 0-34.133333-13.653333-34.133333-34.133334s13.653333-34.133333 34.133333-34.133333h88.746667c20.48 0 34.133333 13.653333 34.133333 34.133333 6.826667 20.48-13.653333 34.133333-34.133333 34.133334z" fill="#333333" p-id="1463"></path></svg>