<?xml version="1.0" standalone="no"?><!DOCTYPE svg PUBLIC "-//W3C//DTD SVG 1.1//EN" "http://www.w3.org/Graphics/SVG/1.1/DTD/svg11.dtd"><svg t="1678608257539" class="icon" viewBox="0 0 1024 1024" version="1.1" xmlns="http://www.w3.org/2000/svg" p-id="2693" xmlns:xlink="http://www.w3.org/1999/xlink" width="200" height="200"><path d="M970.837333 919.850667l-205.696-205.653334A382.421333 382.421333 0 0 0 853.333333 469.333333a384 384 0 0 0-384-384 384 384 0 0 0-384 384 384 384 0 0 0 384 384 382.421333 382.421333 0 0 0 244.906667-88.192l205.653333 205.653334a36.053333 36.053333 0 0 0 50.986667 0 36.266667 36.266667 0 0 0-0.042667-50.944z m-380.117333-162.986667c-38.4 16.256-79.189333 24.448-121.386667 24.448a311.296 311.296 0 0 1-220.586666-91.392A311.296 311.296 0 0 1 157.312 469.333333 311.296 311.296 0 0 1 248.746667 248.746667 311.296 311.296 0 0 1 469.333333 157.354667a311.296 311.296 0 0 1 220.586667 91.392A311.296 311.296 0 0 1 781.354667 469.333333a311.296 311.296 0 0 1-91.392 220.586667 310.186667 310.186667 0 0 1-99.242667 66.901333z" fill="#000000" opacity=".65" p-id="2694"></path></svg>