<?xml version="1.0" standalone="no"?><!DOCTYPE svg PUBLIC "-//W3C//DTD SVG 1.1//EN" "http://www.w3.org/Graphics/SVG/1.1/DTD/svg11.dtd"><svg t="1678607769935" class="icon" viewBox="0 0 1024 1024" version="1.1" xmlns="http://www.w3.org/2000/svg" p-id="1620" xmlns:xlink="http://www.w3.org/1999/xlink" width="200" height="200"><path d="M841.142857 1024h-658.285714C80.457143 1024 0 943.542857 0 841.142857v-658.285714C0 80.457143 80.457143 0 182.857143 0h658.285714C943.542857 0 1024 80.457143 1024 182.857143v658.285714c0 102.4-80.457143 182.857143-182.857143 182.857143z m-658.285714-950.857143C124.342857 73.142857 73.142857 124.342857 73.142857 182.857143v658.285714c0 58.514286 51.2 109.714286 109.714286 109.714286h658.285714c58.514286 0 109.714286-51.2 109.714286-109.714286v-658.285714c0-58.514286-51.2-109.714286-109.714286-109.714286h-658.285714z" fill="#333333" p-id="1621"></path><path d="M36.571429 270.628571h928.914285v73.142858H36.571429zM321.828571 819.2c-7.314286 0-14.628571 0-21.942857-7.314286L175.542857 716.8c-7.314286 0-14.628571-14.628571-14.628571-21.942857s0-21.942857 7.314285-29.257143L292.571429 526.628571c14.628571-14.628571 36.571429-14.628571 58.514285 0 14.628571 14.628571 14.628571 36.571429 0 51.2L256 687.542857l95.085714 65.828572c7.314286 7.314286 14.628571 36.571429 0 51.2-7.314286 7.314286-14.628571 14.628571-29.257143 14.628571zM709.485714 819.2c-14.628571 0-21.942857-7.314286-29.257143-14.628571-14.628571-14.628571-7.314286-36.571429 7.314286-51.2l95.085714-65.828572-102.4-109.714286c-14.628571-14.628571-14.628571-36.571429 0-51.2 21.942857-14.628571 43.885714-14.628571 58.514286 0l124.342857 138.971429c7.314286 7.314286 7.314286 14.628571 7.314286 29.257143 0 7.314286-7.314286 21.942857-14.628571 29.257143L731.428571 811.885714c-7.314286 7.314286-14.628571 7.314286-21.942857 7.314286zM438.857143 819.2h-14.628572c-14.628571-7.314286-29.257143-29.257143-14.628571-51.2L533.942857 512c7.314286-14.628571 29.257143-29.257143 51.2-14.628571 14.628571 7.314286 29.257143 29.257143 14.628572 51.2L475.428571 804.571429c-7.314286 7.314286-21.942857 14.628571-36.571428 14.628571z" fill="#333333" p-id="1622"></path></svg>