<?xml version="1.0" standalone="no"?><!DOCTYPE svg PUBLIC "-//W3C//DTD SVG 1.1//EN" "http://www.w3.org/Graphics/SVG/1.1/DTD/svg11.dtd"><svg t="1678607779265" class="icon" viewBox="0 0 1024 1024" version="1.1" xmlns="http://www.w3.org/2000/svg" p-id="1779" xmlns:xlink="http://www.w3.org/1999/xlink" width="200" height="200"><path d="M980.114286 87.771429c-21.942857-14.628571-51.2-21.942857-73.142857-21.942858-29.257143 0-51.2 14.628571-73.142858 36.571429L519.314286 453.485714s-7.314286 7.314286-7.314286 14.628572l-29.257143 131.657143c0 7.314286 0 21.942857 7.314286 29.257142 14.628571 14.628571 21.942857 14.628571 29.257143 14.628572h7.314285L658.285714 599.771429c7.314286 0 7.314286-7.314286 14.628572-7.314286l314.514285-351.085714c43.885714-43.885714 36.571429-117.028571-7.314285-153.6z m-73.142857 43.885714c7.314286 0 14.628571 0 21.942857 7.314286 14.628571 14.628571 14.628571 36.571429 0 51.2l-14.628572 14.628571-36.571428-43.885714 14.628571-14.628572c0-7.314286 7.314286-14.628571 14.628572-14.628571zM629.028571 541.257143l-58.514285 21.942857 7.314285-65.828571L826.514286 219.428571l51.2 43.885715-248.685715 277.942857z" fill="#333333" p-id="1780"></path><path d="M914.285714 1024h-804.571428C51.2 1024 0 972.8 0 914.285714v-804.571428C0 51.2 51.2 0 109.714286 0h577.828571c21.942857 0 36.571429 14.628571 36.571429 36.571429s-14.628571 36.571429-36.571429 36.571428H109.714286c-21.942857 0-36.571429 14.628571-36.571429 36.571429v804.571428c0 21.942857 14.628571 36.571429 36.571429 36.571429h804.571428c21.942857 0 36.571429-14.628571 36.571429-36.571429V599.771429c0-21.942857 14.628571-36.571429 36.571428-36.571429s36.571429 21.942857 36.571429 36.571429v314.514285c0 58.514286-51.2 109.714286-109.714286 109.714286z" fill="#333333" p-id="1781"></path><path d="M819.2 877.714286H226.742857c-21.942857 0-36.571429-14.628571-36.571428-36.571429s14.628571-36.571429 36.571428-36.571428h592.457143c21.942857 0 36.571429 14.628571 36.571429 36.571428s-14.628571 36.571429-36.571429 36.571429z" fill="#333333" p-id="1782"></path></svg>